<svg width="78" height="112" viewBox="0 0 78 112" fill="none" xmlns="http://www.w3.org/2000/svg">
<path d="M47.3058 0.145584L47.488 0.136096L51.3434 0.152134L59.8815 0.131671L64.6607 0.118471C65.4003 0.116521 66.2159 0.0410588 66.9462 0.131046C67.3609 0.182146 67.7778 0.379759 68.0812 0.666609C68.4964 1.05916 68.6825 1.55966 68.6928 2.12527L68.6944 6.631C68.6913 7.5235 68.7914 8.58375 68.6019 9.45087C68.5235 9.80925 68.3562 10.1191 68.0997 10.381C67.7894 10.6977 67.4412 10.9149 67.0012 10.9972C66.5215 11.0871 65.9888 11.0464 65.5012 11.0476L62.9072 11.0502L52.3935 11.0109C54.9683 12.3711 57.3808 13.8869 59.5709 15.8221C63.7353 19.502 66.7233 24.4041 68.5307 29.6296L69.6564 29.671C71.913 29.8264 74.0579 31.1139 75.5129 32.8017C76.9698 34.4919 77.6959 36.8491 77.5167 39.0651C77.313 41.5806 76.3572 43.7641 74.3967 45.4086C74.0822 45.6724 73.7763 45.9181 73.4272 46.1376C73.2009 46.2799 72.7049 46.4489 72.5407 46.6161C72.4377 46.721 72.3839 47.395 72.3584 47.5665L71.8343 51.5922L70.6317 59.9444L65.8959 92.092L64.5479 101.418C64.3402 102.722 64.2193 104.064 63.8477 105.334C63.418 106.802 62.6594 108.071 61.5752 109.148C60.5095 110.206 59.0554 111.026 57.6025 111.406C55.8954 111.853 53.96 111.679 52.2017 111.675L46.5313 111.657L29.8163 111.66L24.1882 111.666C23.2013 111.662 22.1503 111.719 21.1719 111.589C19.64 111.384 18.308 110.86 17.0732 109.919C15.6185 108.81 14.6533 107.317 14.1328 105.57C13.7969 104.443 13.6858 103.187 13.5234 102.023L12.9439 98.107L10.8512 83.3177L5.66092 46.8205C5.00754 46.5157 4.44304 46.1391 3.87692 45.6975C1.91617 44.1676 0.819542 42.0617 0.486917 39.625C0.370667 38.774 0.415541 37.8612 0.566291 37.0176C1.25167 33.1831 4.15942 30.2246 8.05167 29.6689C8.46879 29.6092 8.88467 29.5827 9.30554 29.5735C9.39142 29.5716 9.85479 29.5831 9.87679 29.5649C9.89104 29.553 9.95779 29.2752 9.96567 29.2474L10.3332 28.0777C10.735 26.9362 11.3153 25.7422 11.89 24.6792C14.2597 20.2967 17.6325 16.5557 21.7185 13.7104C27.9487 9.37187 36.098 7.40825 43.5935 8.75262C43.932 6.8975 44.4995 5.00725 44.9974 3.1875C45.1859 2.49851 45.3063 1.55242 45.7214 0.970259C46.0878 0.456609 46.7097 0.234197 47.3058 0.145584Z" fill="#771925"/>
<path d="M46.0411 12.7765L48.3638 3.61485L65.327 3.62782L65.3703 7.64913L51.6091 7.65325L49.9343 14.0963L45.903 29.6973L47.2112 29.7016L41.6582 29.7401L46.0411 12.7765Z" fill="#71BC77"/>
<path d="M49.9344 14.0963C50.9804 14.494 51.975 15.0896 52.93 15.6653C57.7833 18.5906 61.584 22.927 63.9052 28.0938L64.5198 29.7145L47.2113 29.7016L45.9031 29.6973L49.9344 14.0963Z" fill="#FEFEFE"/>
<path d="M41.6582 29.7401L13.3936 29.6996C15.4703 23.9264 19.5206 18.943 24.7888 15.7731C29.2879 13.066 34.5877 11.6123 39.8471 11.8255C41.9183 11.9095 44.0327 12.2801 46.0411 12.7765L41.6582 29.7401Z" fill="#FEFEFE"/>
<path d="M8.53711 44.0348C9.40886 44.21 14.9372 44.0531 15.0465 44.1651L12.9282 44.1643L16.742 70.476L18.674 83.9491L20.4877 96.5748L21.0354 100.28C21.1605 101.152 21.2576 102.057 21.4542 102.916C21.5394 103.289 21.659 103.611 21.9864 103.832C22.1786 103.961 22.4232 104.056 22.6562 104.066L25.1221 104.078L30.1055 104.093L45.2386 104.104L52.5836 104.092L54.4579 104.083C54.812 104.081 55.2009 104.109 55.5474 104.037C55.9171 103.961 56.2424 103.733 56.4337 103.406C56.8304 102.73 56.8294 101.499 56.944 100.723L57.6771 95.6059L59.1651 85.1875L63.7722 53.5126L64.8094 46.2435L65.0405 44.7813C65.0682 44.6071 65.0741 44.3423 65.1395 44.1834L67.8949 44.1974C68.42 44.1993 68.9795 44.2318 69.4997 44.1615L67.1966 59.9299L63.3249 86.3391L61.6477 97.8959L61.1136 101.675C61.0202 102.341 60.9576 103.026 60.8159 103.684C60.6652 104.383 60.429 105.033 60.0504 105.64C59.2164 106.977 57.9689 107.898 56.4295 108.245L56.3125 108.27C55.5977 108.429 54.8456 108.386 54.1167 108.389L51.1195 108.4L39.4484 108.41L27.1972 108.419L23.7135 108.41C23.0409 108.406 22.3192 108.447 21.6556 108.341L21.5625 108.326C20.7339 108.198 19.959 107.872 19.2891 107.365C18.3831 106.68 17.6815 105.693 17.3725 104.597C17.1264 103.724 17.04 102.803 16.9012 101.908L16.2575 97.6886L14.482 85.2813L10.7344 59.0625L8.53711 44.0348Z" fill="#E0E5E3"/>
<path d="M8.53718 44.0348C7.35543 43.8043 6.3283 43.3186 5.47567 42.4543C4.37767 41.341 3.8448 39.8656 3.8648 38.313C3.88268 36.9242 4.50518 35.4979 5.5018 34.5306C6.40855 33.6506 7.62305 32.982 8.8828 32.803C9.63318 32.6964 10.4273 32.7453 11.1857 32.7441L15.0638 32.739L28.0182 32.7165L55.0756 32.7327L68.5927 32.7405C70.0826 32.774 71.5388 33.4055 72.5677 34.4976C73.6351 35.6306 74.1604 37.1598 74.0921 38.708C74.0147 40.4596 73.1961 41.8485 71.9063 42.988C71.5019 43.3452 71.0152 43.6496 70.5082 43.8368C70.1756 43.9595 69.8277 44.0244 69.4998 44.1615C68.9796 44.2317 68.4201 44.1993 67.8949 44.1974L65.1396 44.1834L43.5921 44.1732L39.4239 44.1813L15.0466 44.1651C14.9373 44.0531 9.40893 44.21 8.53718 44.0348Z" fill="#FEFEFE"/>
<path d="M9.14201 36.6365C9.72376 36.5974 10.3385 36.6473 10.923 36.6554L13.9564 36.6734L25.0789 36.6797L60.1756 36.6755L65.9241 36.67C66.7936 36.6694 67.7775 36.5739 68.6309 36.6981C68.7698 36.7182 68.9086 36.7845 69.0313 36.8498C69.4735 37.0848 69.8225 37.5184 69.9666 37.9971C70.0958 38.426 69.9969 38.8647 69.778 39.2482C69.4874 39.7571 69.0116 40.0336 68.4585 40.1843L63.437 40.1896L53.3845 40.1916L19.8371 40.1909L12.8135 40.1995L10.4314 40.2216C9.95689 40.2274 9.37414 40.2999 8.92501 40.1328C8.48626 39.9696 8.05926 39.603 7.86714 39.1732C7.65326 38.6949 7.64501 38.1945 7.85226 37.711C8.10789 37.1145 8.57676 36.8676 9.14201 36.6365Z" fill="#E34D43"/>
<path d="M65.1395 44.1834C65.0741 44.3422 65.0682 44.6071 65.0405 44.7812L64.8093 46.2435L63.7722 53.5126L59.1651 85.1875L57.6771 95.6059L56.944 100.723C56.8293 101.499 56.8303 102.73 56.4337 103.406C56.2423 103.732 55.9171 103.961 55.5474 104.037C55.2009 104.109 54.812 104.081 54.4579 104.083L52.5836 104.092L45.2386 104.104L30.1055 104.093L25.1221 104.078L22.6562 104.066C22.4232 104.055 22.1786 103.961 21.9863 103.832C21.659 103.611 21.5393 103.289 21.4542 102.916C21.2576 102.057 21.1605 101.152 21.0353 100.279L20.4877 96.5747L18.674 83.9491L16.742 70.476L12.9282 44.1642L15.0465 44.1651L39.4238 44.1812L43.592 44.1732L65.1395 44.1834Z" fill="#771925"/>
<path d="M39.424 44.1813L43.5921 44.1732L43.0087 47.0643L52.5262 47.0769L45.3579 47.1094L43.6776 47.1044C43.4664 47.1034 43.1684 47.0589 42.9729 47.1317L40.9534 55.9629L36.7116 55.9637L38.7241 47.1111L33.5479 47.0773L38.7239 47.07L39.424 44.1813Z" fill="#71BC77"/>
<path d="M56.4476 84.8903L54.1091 101.111L31.9055 101.11C32.8163 100.991 33.8473 101.078 34.77 101.08C34.9695 101.08 35.359 101.131 35.5371 101.081C35.6813 101.041 36.0244 100.666 36.1578 100.551L37.5651 99.412L51.0679 88.896L53.5645 86.9473L55.2835 85.596C55.6406 85.3285 56.0176 85.0269 56.4476 84.8903Z" fill="#E34D43"/>
<path d="M52.526 47.0769L61.743 47.0564L60.5355 55.9941L40.9531 55.9629L42.9726 47.1317C43.1681 47.0589 43.4661 47.1034 43.6774 47.1044L45.3576 47.1094L52.526 47.0769Z" fill="#FEFEFE"/>
<path d="M17.5585 55.9994L16.2295 47.0556L33.5479 47.0773L38.7241 47.1111L36.7116 55.9638L17.5585 55.9994Z" fill="#FEFEFE"/>
<path d="M23.0291 94.555L58.9634 67.1901L56.4478 84.8903C56.0178 85.0269 55.6408 85.3285 55.2837 85.596L53.5647 86.9473L51.0681 88.896L37.5653 99.412L36.1579 100.55C36.0246 100.666 35.6814 101.041 35.5373 101.081C35.3592 101.131 34.9697 101.08 34.7702 101.08C33.8474 101.078 32.8164 100.991 31.9057 101.11L23.9633 101.134L23.0291 94.555Z" fill="#F38D3A"/>
<path d="M36.7115 55.9637L40.9532 55.9629L60.5356 55.9941L58.9633 67.1901L23.029 94.555L17.5583 55.9994L36.7115 55.9637Z" fill="#E34D43"/>
<path d="M27.7868 59.7093L27.8771 59.6969C29.6987 59.538 31.7277 60.1373 33.1563 61.2806C34.6492 62.4754 35.5213 64.1471 35.7673 66.0313L35.7936 66.221C36.0101 68.0726 35.414 70.084 34.2305 71.5218C33.0223 72.9894 31.2552 73.9276 29.3713 74.1289C27.713 74.3406 25.9686 73.9335 24.5762 73.0118C22.9046 71.9051 21.7733 70.274 21.3568 68.3125L21.2947 68C21.0021 66.171 21.5107 64.1261 22.632 62.6456C23.8785 60.9996 25.7546 59.9873 27.7868 59.7093Z" fill="#F38D3A"/>
</svg>
