<svg width="30" height="30" viewBox="0 0 30 30" fill="none" xmlns="http://www.w3.org/2000/svg">
<path d="M25.8333 0H4.16667C3.062 0.00132321 2.00296 0.440735 1.22185 1.22185C0.440735 2.00296 0.00132321 3.062 0 4.16667V25.8333C0.00114712 26.938 0.440502 27.9972 1.22166 28.7783C2.00281 29.5595 3.06195 29.9989 4.16667 30H25.8333C26.938 29.9989 27.9972 29.5595 28.7783 28.7783C29.5595 27.9972 29.9989 26.938 30 25.8333V4.16667C29.9987 3.062 29.5593 2.00296 28.7781 1.22185C27.997 0.440735 26.938 0.00132321 25.8333 0ZM16.3333 1.66667C17.4379 1.66667 18.3333 2.5621 18.3333 3.66667V8C18.3333 9.10457 17.4379 10 16.3333 10H13.6667C12.5621 10 11.6667 9.10457 11.6667 8V3.66667C11.6667 2.5621 12.5621 1.66667 13.6667 1.66667H16.3333Z" fill="#C67C4E"/>
</svg>
