<svg width="30" height="30" viewBox="0 0 30 30" fill="none" xmlns="http://www.w3.org/2000/svg">
<path d="M24 7.05882V2.83412C24 1.27235 22.526 0 20.714 0H9.316C7.506 0 6.032 1.27235 6.032 2.83412V7.05882H2C0.895431 7.05882 0 7.95425 0 9.05882V28C0 29.1046 0.895431 30 2 30H28C29.1046 30 30 29.1046 30 28V9.05882C30 7.95426 29.1046 7.05882 28 7.05882H24ZM8.032 2.83412C8.032 2.24471 8.608 1.76471 9.316 1.76471H20.714C21.424 1.76471 22 2.24471 22 2.83412V7.05882H8.032V2.83412ZM28 12.3529H2V8.82353H6.032V9.95824H8.032V8.82353H22V9.95824H24V8.82353H28V12.3529Z" fill="#C67C4E"/>
</svg>
