<svg width="30" height="30" viewBox="0 0 30 30" fill="none" xmlns="http://www.w3.org/2000/svg">
<path d="M25.9003 23.5662C25.1641 22.4634 24.046 21.8541 22.9951 21.458C22.4681 21.2594 21.9531 21.1135 21.4994 20.9895C21.0464 20.8661 20.6524 20.7622 20.3877 20.6626C19.9247 20.4906 19.4355 20.2677 19.0942 20.028C18.9238 19.9091 18.7925 19.7866 18.7163 19.6823C18.6393 19.5755 18.6184 19.5018 18.6175 19.4372C18.6175 18.992 18.6175 18.4355 18.6175 17.7026C19.2099 17.0429 20.0609 16.0219 20.4106 14.4025C20.5327 14.3473 20.6536 14.2852 20.7701 14.2038C21.0598 14.004 21.3056 13.7138 21.5139 13.3189C21.7234 12.9224 21.9092 12.4155 22.1074 11.722C22.2078 11.3703 22.2541 11.0648 22.2541 10.7929C22.2545 10.4798 22.19 10.2074 22.0715 9.98654C21.8939 9.65174 21.6057 9.46553 21.3725 9.38098C21.3467 9.37172 21.3241 9.36604 21.2992 9.35883L21.3168 8.58756C21.3168 8.58756 21.358 7.79701 21.3261 7.38598C21.2403 6.26941 21.1509 5.15285 21.0783 4.03512C21.0642 3.81756 21.0436 3.59789 21.0436 3.37951C21.0436 2.07879 17.2736 0 14.9999 0C12.726 0 8.95608 2.07879 8.95608 3.37945C8.95608 3.87715 8.53462 8.38969 8.69499 8.40217C8.6954 8.40217 8.70103 9.28705 8.70103 9.35959C8.60106 9.391 8.49513 9.43213 8.38233 9.50104C8.21552 9.60416 8.04665 9.76535 7.92899 9.98654C7.81052 10.2074 7.74566 10.4798 7.74607 10.7933C7.74648 11.0653 7.79282 11.3706 7.89314 11.722C8.15827 12.6456 8.39763 13.242 8.70753 13.6792C8.86228 13.8967 9.0387 14.0712 9.23054 14.2038C9.34702 14.2852 9.4679 14.3472 9.58995 14.4025C9.9397 16.0219 10.7908 17.0429 11.383 17.7026C11.383 18.4355 11.383 18.992 11.383 19.4372C11.383 19.492 11.3613 19.5711 11.2763 19.6839C11.1518 19.8514 10.8935 20.0545 10.5869 20.2266C10.281 20.4007 9.92927 20.551 9.62142 20.6598C9.25995 20.7879 8.67771 20.9209 8.02532 21.1083C7.04499 21.3916 5.88612 21.8002 4.94323 22.6085C4.47261 23.013 4.05917 23.5207 3.76866 24.1517C3.47774 24.7823 3.31093 25.5314 3.31128 26.4086C3.31128 26.6121 3.32019 26.8224 3.3387 27.04C3.35206 27.1923 3.41007 27.3163 3.47815 27.4187C3.60794 27.6089 3.77997 27.7508 3.99554 27.8962C4.37312 28.146 4.89612 28.3902 5.56585 28.6299C7.57011 29.3447 10.8883 29.9991 15.0004 29.9999C18.3412 29.9999 21.161 29.5664 23.1737 29.0217C24.1807 28.7484 24.9845 28.4498 25.5656 28.1513C25.8565 28.0006 26.0918 27.8523 26.2784 27.6895C26.3719 27.6073 26.4536 27.5211 26.5225 27.4188C26.5903 27.3164 26.6487 27.1924 26.662 27.04C26.6802 26.8225 26.689 26.6129 26.689 26.4098C26.6905 25.2412 26.3902 24.2992 25.9003 23.5662ZM13.3494 3.35812H16.6503V4.84746H13.3494V3.35812ZM10.4264 13.9942L10.3805 13.7343L10.1323 13.6457C9.97433 13.5893 9.85386 13.5316 9.74868 13.4587C9.59353 13.3491 9.4529 13.1996 9.28855 12.8934C9.12612 12.5887 8.95409 12.1334 8.76595 11.473C8.68333 11.1841 8.65392 10.96 8.65392 10.7932C8.65427 10.5994 8.69142 10.4862 8.72927 10.4148C8.78651 10.3109 8.85659 10.2665 8.94606 10.2306C9.01778 10.2032 9.09314 10.196 9.12337 10.1944L9.46708 10.2371L10.2846 11.8808V8.15877C11.3952 7.70906 12.9832 7.12119 14.7561 7.12119C16.1402 7.12119 17.4929 7.4802 18.6111 7.85174L19.7152 8.37193V11.8808L20.5421 10.2178L20.8684 10.1944C20.8963 10.1936 21.0421 10.2081 21.138 10.2717C21.19 10.3048 21.2323 10.3435 21.271 10.4148C21.3093 10.4862 21.346 10.5994 21.3468 10.7927C21.3468 10.96 21.3174 11.184 21.2348 11.4729C20.9846 12.3542 20.7601 12.8671 20.5542 13.1516C20.451 13.2955 20.3567 13.3853 20.252 13.4586C20.1468 13.5315 20.0263 13.5892 19.8683 13.6456L19.6201 13.7343L19.5742 13.9942C19.2836 15.6204 18.4455 16.5356 17.8265 17.225L17.7101 17.3548V17.5288C17.7101 18.354 17.7101 18.9556 17.7101 19.4371C17.7093 19.7361 17.8258 20.0053 17.9849 20.2201C18.0002 20.2406 18.0191 20.2583 18.0353 20.2785L17.2129 21.9898H12.7878L11.9621 20.2724C11.9738 20.2583 11.9883 20.247 11.9992 20.2325C12.164 20.0166 12.2905 19.7458 12.2905 19.4371C12.2905 18.9555 12.2905 18.354 12.2905 17.5287V17.3542L12.1741 17.2249C11.5551 16.5356 10.7169 15.6205 10.4264 13.9942ZM19.4919 26.243L15.0003 28.7154L10.5086 26.243L11.1933 24.6312L9.32599 23.1745L11.3206 21.0321L15.0003 28.7154L18.68 21.0321L20.6745 23.1745L18.8073 24.6316L19.4919 26.243Z" fill="#C67C4E"/>
</svg>
