<svg width="21" height="19" viewBox="0 0 21 19" fill="none" xmlns="http://www.w3.org/2000/svg">
<path opacity="0.4" d="M10.276 18.8374C7.99294 17.4273 5.87064 15.7645 3.9479 13.8796C2.59052 12.5338 1.55387 10.8905 0.917178 9.07526C-0.220455 5.53523 1.10382 1.48948 4.80113 0.288397C6.75263 -0.324469 8.87506 0.0517545 10.5071 1.29983C12.1397 0.0531503 14.2614 -0.322951 16.213 0.288397C19.9103 1.48948 21.2435 5.53523 20.1058 9.07526C19.4743 10.8888 18.4438 12.5319 17.0929 13.8796C15.1684 15.7625 13.0463 17.4251 10.7648 18.8374L10.5159 19L10.276 18.8374Z" fill="#8D8D8D"/>
<path d="M10.5109 19L10.276 18.8374C7.99013 17.4274 5.86487 15.7647 3.93902 13.8796C2.5752 12.5356 1.53238 10.8922 0.890519 9.07523C-0.238225 5.5352 1.08605 1.48945 4.78335 0.288367C6.73486 -0.324499 8.88528 0.0520129 10.5109 1.31054V19Z" fill="#8D8D8D"/>
</svg>
