<svg width="13" height="13" viewBox="0 0 13 13" fill="none" xmlns="http://www.w3.org/2000/svg">
<path d="M5.70387 1.12692H3.52279C1.72904 1.12692 0.60437 2.39684 0.60437 4.19467V9.04451C0.60437 10.8423 1.72379 12.1123 3.52279 12.1123H8.67012C10.4697 12.1123 11.5891 10.8423 11.5891 9.04451V6.69484" stroke="#303336" stroke-linecap="round" stroke-linejoin="round"/>
<path fill-rule="evenodd" clip-rule="evenodd" d="M4.14955 5.87053L8.5088 1.51128C9.05189 0.968776 9.93214 0.968776 10.4752 1.51128L11.1851 2.22119C11.7282 2.76428 11.7282 3.64511 11.1851 4.18761L6.80489 8.56786C6.56747 8.80528 6.24547 8.93886 5.90947 8.93886H3.7243L3.77914 6.73386C3.7873 6.40953 3.91972 6.10036 4.14955 5.87053Z" stroke="#303336" stroke-linecap="round" stroke-linejoin="round"/>
<path d="M7.84637 2.18478L10.5099 4.84828" stroke="#303336" stroke-linecap="round" stroke-linejoin="round"/>
</svg>
