<svg width="21" height="20" viewBox="0 0 21 20" fill="none" xmlns="http://www.w3.org/2000/svg">
<path d="M12.4481 7.65417L8.35822 11.7441C7.83283 11.2187 7.50952 10.4993 7.50952 9.69913C7.50952 8.09873 8.80277 6.80548 10.4032 6.80548C11.2034 6.80548 11.9227 7.12879 12.4481 7.65417Z" stroke="#292D32" stroke-width="1.21242" stroke-linecap="round" stroke-linejoin="round"/>
<path d="M15.1075 4.66357C13.693 3.59664 12.0764 3.01468 10.4033 3.01468C7.55007 3.01468 4.89082 4.69591 3.03985 7.60572C2.3124 8.7454 2.3124 10.661 3.03985 11.8007C3.6784 12.803 4.42202 13.6678 5.2303 14.363" stroke="#292D32" stroke-width="1.21242" stroke-linecap="round" stroke-linejoin="round"/>
<path d="M7.50952 15.7857C8.43096 16.1737 9.40898 16.3838 10.4032 16.3838C13.2564 16.3838 15.9157 14.7026 17.7666 11.7928C18.4941 10.6531 18.4941 8.73747 17.7666 7.5978C17.4999 7.17749 17.2089 6.78143 16.9098 6.40962" stroke="#292D32" stroke-width="1.21242" stroke-linecap="round" stroke-linejoin="round"/>
<path d="M13.2403 10.2651C13.0301 11.4048 12.1006 12.3343 10.9609 12.5445" stroke="#292D32" stroke-width="1.21242" stroke-linecap="round" stroke-linejoin="round"/>
<path d="M8.3583 11.744L2.32043 17.7818" stroke="#292D32" stroke-width="1.21242" stroke-linecap="round" stroke-linejoin="round"/>
<path d="M18.4861 1.61637L12.4482 7.65424" stroke="#292D32" stroke-width="1.21242" stroke-linecap="round" stroke-linejoin="round"/>
</svg>
