<svg width="20" height="20" viewBox="0 0 20 20" fill="none" xmlns="http://www.w3.org/2000/svg">
<path d="M12.593 9.69913C12.593 11.2995 11.2997 12.5928 9.69931 12.5928C8.09892 12.5928 6.80566 11.2995 6.80566 9.69913C6.80566 8.09873 8.09892 6.80548 9.69931 6.80548C11.2997 6.80548 12.593 8.09873 12.593 9.69913Z" stroke="#292D32" stroke-width="1.21242" stroke-linecap="round" stroke-linejoin="round"/>
<path d="M9.69932 16.3839C12.5526 16.3839 15.2118 14.7026 17.0628 11.7928C17.7902 10.6531 17.7902 8.73751 17.0628 7.59783C15.2118 4.68801 12.5526 3.00679 9.69932 3.00679C6.84609 3.00679 4.18684 4.68801 2.33587 7.59783C1.60842 8.73751 1.60842 10.6531 2.33587 11.7928C4.18684 14.7026 6.84609 16.3839 9.69932 16.3839Z" stroke="#292D32" stroke-width="1.21242" stroke-linecap="round" stroke-linejoin="round"/>
</svg>
