<svg width="16" height="16" viewBox="0 0 16 16" fill="none" xmlns="http://www.w3.org/2000/svg">
<path fill-rule="evenodd" clip-rule="evenodd" d="M7.99854 0C3.57987 0 -0.00146484 3.582 -0.00146484 8C-0.00146484 12.418 3.57987 16 7.99854 16C12.4165 16 15.9985 12.418 15.9985 8C15.9985 3.582 12.4165 0 7.99854 0ZM8.09187 12.6787C5.5132 12.6787 3.4252 10.5853 3.4252 8C3.4252 5.41467 5.5132 3.32133 8.09187 3.32133C9.35187 3.32133 10.4052 3.786 11.2132 4.54067L9.8972 5.85933V5.85667C9.4072 5.38867 8.78587 5.14867 8.09187 5.14867C6.55187 5.14867 5.30054 6.45267 5.30054 7.99733C5.30054 9.54067 6.55187 10.8487 8.09187 10.8487C9.4892 10.8487 10.4399 10.0473 10.6359 8.94733H8.09187V7.12267H12.4819C12.5405 7.436 12.5719 7.76267 12.5719 8.10533C12.5719 10.7787 10.7872 12.6787 8.09187 12.6787V12.6787Z" fill="#EC8000"/>
</svg>
