<svg width="11" height="13" viewBox="0 0 11 13" fill="none" xmlns="http://www.w3.org/2000/svg">
<path d="M1.62 13V0.147999H5.724C7.38 0.147999 8.586 0.483999 9.342 1.156C10.11 1.828 10.494 2.752 10.494 3.928C10.494 4.624 10.338 5.278 10.026 5.89C9.714 6.502 9.192 6.994 8.46 7.366C7.74 7.738 6.756 7.924 5.508 7.924H4.338V13H1.62ZM0.18 11.074V9.328H7.11V11.074H0.18ZM0.18 7.924V5.692H5.454V7.924H0.18ZM5.238 5.692C5.754 5.692 6.198 5.638 6.57 5.53C6.942 5.41 7.23 5.224 7.434 4.972C7.638 4.72 7.74 4.402 7.74 4.018C7.74 3.466 7.566 3.058 7.218 2.794C6.87 2.518 6.324 2.38 5.58 2.38H4.338V5.692H5.238Z" fill="#2F4B4E"/>
</svg>
