<svg width="18" height="17" viewBox="0 0 18 17" fill="none" xmlns="http://www.w3.org/2000/svg">
<path d="M10.4417 1.42501L11.9083 4.35835C12.1083 4.76668 12.6417 5.15834 13.0917 5.23334L15.75 5.67501C17.45 5.95834 17.85 7.19168 16.625 8.40834L14.5583 10.475C14.2083 10.825 14.0167 11.5 14.125 11.9833L14.7167 14.5417C15.1833 16.5667 14.1083 17.35 12.3167 16.2917L9.82499 14.8167C9.37499 14.55 8.63332 14.55 8.17499 14.8167L5.68332 16.2917C3.89999 17.35 2.81665 16.5583 3.28332 14.5417L3.87499 11.9833C3.98332 11.5 3.79165 10.825 3.44165 10.475L1.37499 8.40834C0.158318 7.19168 0.549985 5.95834 2.24999 5.67501L4.90832 5.23334C5.34999 5.15834 5.88332 4.76668 6.08332 4.35835L7.54999 1.42501C8.34999 -0.166654 9.64999 -0.166654 10.4417 1.42501Z" fill="#FBBE21"/>
</svg>
